<svg width="128" height="46" viewBox="0 0 128 46" fill="none" xmlns="http://www.w3.org/2000/svg">
<g filter="url(#filter0_d_742_34)">
<path fill-rule="evenodd" clip-rule="evenodd" d="M36.1843 39.2673C36.5323 39.2328 36.8788 39.184 37.2229 39.1213C37.4757 39.0755 37.7121 38.963 37.9082 38.7952C38.1044 38.6274 38.2535 38.4103 38.3404 38.1656C38.4273 37.921 38.449 37.6574 38.4034 37.4016C38.3578 37.1457 38.2463 36.9065 38.0804 36.7081C37.2809 35.7538 36.7349 34.6088 36.4941 33.3814C36.4493 33.1544 36.537 32.7559 36.9891 32.3099C40.2045 29.143 42.2 24.8474 42.2 20.092C42.2 10.1669 33.571 2.33337 23.2 2.33337C12.8289 2.33337 4.19995 10.1669 4.19995 20.092C4.19995 30.0171 12.8289 37.8506 23.2 37.8506C24.8232 37.8506 26.4017 37.6592 27.91 37.3001C30.3754 38.8689 33.2869 39.5612 36.1843 39.2673Z" fill="url(#paint0_radial_742_34)"/>
<path d="M23.2 1.63318C12.4937 1.63318 3.49976 9.73096 3.49976 20.0922C3.49986 30.4533 12.4938 38.5502 23.2 38.5502C24.7769 38.5502 26.3132 38.3737 27.7878 38.0443C30.3307 39.5866 33.2985 40.2639 36.2546 39.9642V39.9633C36.6211 39.9268 36.986 39.876 37.3484 39.8099V39.809C37.7233 39.7408 38.0734 39.5752 38.363 39.3275C38.6529 39.0797 38.8721 38.7591 38.9998 38.3998C39.1274 38.0405 39.1595 37.654 39.0925 37.2787C39.0256 36.9033 38.8616 36.5516 38.6169 36.2592V36.2582C37.8949 35.3962 37.402 34.3614 37.1833 33.2513C37.1948 33.3155 37.1418 33.143 37.4802 32.809C40.8182 29.5213 42.9001 25.0498 42.9001 20.0922C42.9001 9.73096 33.9062 1.63318 23.2 1.63318Z" stroke="url(#paint1_linear_742_34)" stroke-width="1.4"/>
</g>
<path d="M54.456 32.3334V32.0134L55.256 31.7254C55.6826 31.5547 56.0133 31.352 56.248 31.1174C56.4826 30.8614 56.6746 30.5094 56.824 30.0614L63.416 11.1494H66.136L72.632 30.1894C72.8026 30.6587 72.9946 31.0214 73.208 31.2774C73.4213 31.512 73.752 31.7147 74.2 31.8854L74.584 32.0134V32.3334H66.456V32.0134L66.936 31.8534C67.384 31.6827 67.6506 31.448 67.736 31.1494C67.8426 30.8294 67.832 30.456 67.704 30.0294L66.2 25.4214H59.096L57.56 29.9334C57.4106 30.4027 57.3573 30.776 57.4 31.0534C57.464 31.3307 57.72 31.5547 58.168 31.7254L58.872 32.0134V32.3334H54.456ZM59.32 24.7814H66.008L62.776 14.8294L59.32 24.7814ZM79.5885 32.8134C78.5431 32.8134 77.6045 32.6854 76.7725 32.4294C75.9405 32.1947 75.1725 31.896 74.4685 31.5334L74.5005 27.7254H74.8205L75.9085 29.6454C76.3778 30.4987 76.8898 31.1387 77.4445 31.5654C78.0205 31.9707 78.7458 32.1734 79.6205 32.1734C80.6445 32.1734 81.4658 31.9494 82.0845 31.5014C82.7245 31.032 83.0445 30.4134 83.0445 29.6454C83.0445 28.9414 82.8205 28.3654 82.3725 27.9174C81.9245 27.4694 81.0925 27.064 79.8765 26.7014L78.5325 26.2854C77.2311 25.9014 76.2071 25.304 75.4605 24.4934C74.7138 23.6827 74.3405 22.6907 74.3405 21.5174C74.3405 20.1094 74.8951 18.9147 76.0045 17.9334C77.1138 16.952 78.7031 16.4614 80.7725 16.4614C81.6045 16.4614 82.3831 16.5574 83.1085 16.7494C83.8551 16.92 84.5698 17.1867 85.2525 17.5494L85.0605 21.0054H84.7405L83.6205 19.0214C83.2151 18.3174 82.8098 17.8267 82.4045 17.5494C82.0205 17.2507 81.4338 17.1014 80.6445 17.1014C79.9191 17.1014 79.2365 17.304 78.5965 17.7094C77.9565 18.1147 77.6365 18.6907 77.6365 19.4374C77.6365 20.1627 77.9031 20.7387 78.4365 21.1654C78.9911 21.592 79.8018 21.9867 80.8685 22.3494L82.3085 22.7654C83.8445 23.2347 84.9431 23.8854 85.6045 24.7174C86.2658 25.528 86.5965 26.5094 86.5965 27.6614C86.5965 29.2187 85.9778 30.4667 84.7405 31.4054C83.5245 32.344 81.8071 32.8134 79.5885 32.8134ZM85.954 32.3334V32.0134L86.434 31.8534C87.1593 31.6187 87.522 31.096 87.522 30.2854V13.1654C87.522 12.7387 87.4366 12.4187 87.266 12.2054C87.0953 11.992 86.7966 11.8214 86.37 11.6934L85.954 11.5974V11.2774L91.81 9.90137L92.194 10.1894L92.098 14.6694V30.2854C92.098 31.1387 92.45 31.672 93.154 31.8854L93.602 32.0134V32.3334H85.954ZM97.826 32.3334L92.13 24.3334L98.05 18.8614C98.3273 18.6054 98.4873 18.3387 98.53 18.0614C98.594 17.7627 98.4126 17.5494 97.986 17.4214L97.442 17.2614V16.9414H102.21V17.2614L101.25 17.5174C100.781 17.6667 100.397 17.848 100.098 18.0614C99.8206 18.2534 99.4793 18.5307 99.074 18.8934L95.49 22.2534L101.218 30.2214C101.559 30.6907 101.879 31.0534 102.178 31.3094C102.477 31.5654 102.861 31.7787 103.33 31.9494L103.458 32.0134V32.3334H97.826ZM103.011 32.3334V32.0134L103.395 31.8854C104.163 31.6294 104.547 31.096 104.547 30.2854V13.1654C104.547 12.7387 104.462 12.4187 104.291 12.2054C104.12 11.9707 103.822 11.8 103.395 11.6934L102.979 11.5974V11.2774L108.835 9.90137L109.219 10.1894L109.091 14.6694V25.6134C109.091 26.4027 109.091 27.192 109.091 27.9814C109.112 28.7494 109.123 29.5174 109.123 30.2854C109.123 30.712 109.208 31.064 109.379 31.3414C109.55 31.5974 109.838 31.7894 110.243 31.9174L110.659 32.0134V32.3334H103.011ZM113.103 40.0134C112.249 40.0134 111.567 39.8 111.055 39.3734C110.564 38.9467 110.319 38.4027 110.319 37.7414C110.319 37.144 110.532 36.664 110.959 36.3014C111.385 35.9387 111.865 35.7574 112.399 35.7574C112.932 35.7574 113.38 35.864 113.743 36.0774C114.105 36.312 114.425 36.6427 114.703 37.0694L114.927 37.3254C115.396 37.9654 115.865 37.9547 116.335 37.2934C116.527 36.9734 116.74 36.5467 116.975 36.0134C117.231 35.5014 117.519 34.808 117.839 33.9334L111.631 19.0854C111.481 18.68 111.321 18.36 111.151 18.1254C110.98 17.8694 110.703 17.656 110.319 17.4854L109.743 17.2614V16.9414H117.711V17.2294L117.071 17.4854C116.601 17.6347 116.356 17.88 116.335 18.2214C116.335 18.5414 116.42 18.9467 116.591 19.4374L119.919 28.0774L123.087 19.3414C123.257 18.8507 123.321 18.4454 123.279 18.1254C123.236 17.784 122.969 17.5494 122.479 17.4214L121.807 17.2614V16.9414H126.255V17.2614L125.551 17.4854C125.06 17.6347 124.719 17.848 124.527 18.1254C124.335 18.4027 124.153 18.7867 123.983 19.2774L118.831 33.3254C117.999 35.5654 117.167 37.24 116.335 38.3494C115.503 39.4587 114.425 40.0134 113.103 40.0134Z" fill="#002C22"/>
<defs>
<filter id="filter0_d_742_34" x="4.88758e-05" y="1.63317e-05" width="46.3998" height="45.4" filterUnits="userSpaceOnUse" color-interpolation-filters="sRGB">
<feFlood flood-opacity="0" result="BackgroundImageFix"/>
<feColorMatrix in="SourceAlpha" type="matrix" values="0 0 0 0 0 0 0 0 0 0 0 0 0 0 0 0 0 0 127 0" result="hardAlpha"/>
<feOffset dy="1.86667"/>
<feGaussianBlur stdDeviation="1.4"/>
<feComposite in2="hardAlpha" operator="out"/>
<feColorMatrix type="matrix" values="0 0 0 0 0.461538 0 0 0 0 0.461538 0 0 0 0 0.461538 0 0 0 0.2 0"/>
<feBlend mode="normal" in2="BackgroundImageFix" result="effect1_dropShadow_742_34"/>
<feBlend mode="normal" in="SourceGraphic" in2="effect1_dropShadow_742_34" result="shape"/>
</filter>
<radialGradient id="paint0_radial_742_34" cx="0" cy="0" r="1" gradientTransform="matrix(-11.4 33.1724 39.0226 13.6059 29.2166 3.9282)" gradientUnits="userSpaceOnUse">
<stop stop-color="#A4F4CF"/>
<stop offset="0.6" stop-color="#00BC7D"/>
<stop offset="0.61" stop-color="#009966"/>
<stop offset="1" stop-color="#004F3B"/>
</radialGradient>
<linearGradient id="paint1_linear_742_34" x1="30.8" y1="3.9282" x2="15.4198" y2="36.0575" gradientUnits="userSpaceOnUse">
<stop stop-color="#00BC7D"/>
<stop offset="0.572115" stop-color="#004F3B"/>
</linearGradient>
</defs>
</svg>
